<?xml version="1.0" encoding="UTF-8"?>
<svg width="159px" height="159px" viewBox="0 0 159 159" version="1.1" xmlns="http://www.w3.org/2000/svg" xmlns:xlink="http://www.w3.org/1999/xlink">
    <!-- Generator: Sketch 51.2 (57519) - http://www.bohemiancoding.com/sketch -->
    <title>Alice One App Icon</title>
    <desc>Created with Sketch.</desc>
    <defs>
        <path d="M121.113281,2.71024145e-15 C144.09375,2.71024145e-15 159,14.90625 159,37.8867188 L159,121.113281 C159,144.09375 144.09375,159 121.113281,159 L37.8867188,159 C14.90625,159 0,144.09375 0,121.113281 L0,37.8867188 C0,14.90625 14.90625,2.71024146e-15 37.8867188,2.71024146e-15 L121.113281,2.71024145e-15 Z" id="path-1"></path>
    </defs>
    <g id="Alice-One-Website" stroke="none" stroke-width="1" fill="none" fill-rule="evenodd">
        <g id="Alice-One-App-Icon">
            <g id="Alice-Suite">
                <g id="App-Store-Icon-Copy-2">
                    <mask id="mask-2" fill="white">
                        <use xlink:href="#path-1"></use>
                    </mask>
                    <use id="Path" fill="#FFFFFF" xlink:href="#path-1"></use>
                    <path d="M56.0650654,167.075452 C85.5677006,203.953061 147.479608,209.612513 166.270166,157.006543 C185.060724,104.400573 156.171368,76.4080562 115.153616,79.7716629 C74.1358634,83.1352696 26.5624302,130.197842 56.0650654,167.075452 Z" id="Combined-Shape" fill="#FF0000" opacity="0.66" mask="url(#mask-2)"></path>
                    <path d="M-70.737417,162.999185 C-32.5646958,210.714201 47.5415715,218.036824 71.8542041,149.971276 C96.1668366,81.9057279 58.7876222,45.6869113 5.71577916,50.0389978 C-47.3560639,54.3910843 -108.910138,115.284169 -70.737417,162.999185 Z" id="Combined-Shape" fill="#FFB000" opacity="0.66" mask="url(#mask-2)"></path>
                    <path d="M-4.07793273,60.7214568 C22.7597479,94.2679349 79.0791916,99.4161723 96.1724102,51.5620663 C113.265629,3.70796032 86.9858304,-21.7560098 49.6731859,-18.6962356 C12.3605414,-15.6364614 -30.9156134,27.1749788 -4.07793273,60.7214568 Z" id="Combined-Shape" fill="#24FF89" opacity="0.66" mask="url(#mask-2)"></path>
                    <path d="M57.20291,82.9118193 C90.3653391,124.364086 159.957402,130.725592 181.078924,71.5938651 C202.200445,12.4621384 169.727372,-19.0028423 123.621379,-15.2219812 C77.5153856,-11.44112 24.0404809,41.4595524 57.20291,82.9118193 Z" id="Combined-Shape" fill="#0070FF" opacity="0.66" mask="url(#mask-2)"></path>
                </g>
            </g>
            <g id="alice-logo-" transform="translate(40.704000, 29.256000)" fill="#FFFFFF">
                <path d="M38.796,77.592 C17.3695608,77.592 0,60.2224392 0,38.796 C0,17.3695608 17.3695608,0 38.796,0 C60.2224392,0 77.592,17.3695608 77.592,38.796 C77.592,60.2224392 60.2224392,77.592 38.796,77.592 Z M37.7679562,19.5753126 C33.3783608,19.5753126 30.1937524,20.25866 28.6444834,20.856589 L28.0419899,27.3483893 C30.0216114,26.5796234 32.6897968,25.896276 36.1326168,25.896276 C43.7068206,25.896276 47.407852,29.1421762 47.407852,34.6089553 L47.407852,36.4027423 C44.7396666,34.4381185 41.1247057,33.327679 37.2515332,33.327679 C28.5584129,33.327679 21.8449141,37.9402739 21.8449141,46.1404427 C21.8449141,53.9989377 28.9026949,58.8677879 37.2515332,58.8677879 C41.3829172,58.8677879 44.9118076,57.5865116 47.4939225,55.5364694 L47.579993,58.0136037 L54.8959854,58.0136037 L54.8959854,34.950629 C54.8959854,25.9816945 48.957121,19.5753126 37.7679562,19.5753126 Z" id="Combined-Shape"></path>
                <path d="M37.4916646,53.5784163 C41.6850375,53.5784163 46.6332176,51.4901448 46.6332176,46.4434889 C46.6332176,42.2669461 43.1946518,39.2215503 37.5755321,39.2215503 C32.8789544,39.2215503 29.3565212,41.9189009 29.3565212,46.4434889 C29.3565212,50.8810657 33.0466893,53.5784163 37.4916646,53.5784163 Z" id="Path"></path>
            </g>
            <path d="M59.9142603,121.476 C59.9142603,122.150317 60.0164012,122.773114 60.220686,123.34441 C60.4249708,123.915706 60.7128223,124.402705 61.0842492,124.805422 C61.4556761,125.208139 61.9106673,125.526561 62.4492363,125.760699 C62.9878053,125.994837 63.5913649,126.111904 64.2599334,126.111904 C64.9285018,126.111904 65.5320615,125.994837 66.0706305,125.760699 C66.6091995,125.526561 67.0641906,125.208139 67.4356175,124.805422 C67.8070444,124.402705 68.094896,123.915706 68.2991808,123.34441 C68.5034655,122.773114 68.6056064,122.150317 68.6056064,121.476 C68.6056064,120.801683 68.5034655,120.178886 68.2991808,119.60759 C68.094896,119.036294 67.8070444,118.549295 67.4356175,118.146578 C67.0641906,117.743861 66.6091995,117.425439 66.0706305,117.191301 C65.5320615,116.957163 64.9285018,116.840096 64.2599334,116.840096 C63.5913649,116.840096 62.9878053,116.957163 62.4492363,117.191301 C61.9106673,117.425439 61.4556761,117.743861 61.0842492,118.146578 C60.7128223,118.549295 60.4249708,119.036294 60.220686,119.60759 C60.0164012,120.178886 59.9142603,120.801683 59.9142603,121.476 Z M57.24,121.476 C57.24,120.501987 57.4210679,119.593546 57.7832091,118.750651 C58.1453504,117.907755 58.6421264,117.167891 59.2735521,116.531036 C59.9049779,115.894182 60.6478205,115.393134 61.5021024,115.02788 C62.3563843,114.662625 63.2756521,114.48 64.2599334,114.48 C65.2442147,114.48 66.1634825,114.662625 67.0177643,115.02788 C67.8720462,115.393134 68.6148889,115.894182 69.2463146,116.531036 C69.8777404,117.167891 70.3745164,117.907755 70.7366576,118.750651 C71.0987988,119.593546 71.2798667,120.501987 71.2798667,121.476 C71.2798667,122.450013 71.0987988,123.363136 70.7366576,124.215398 C70.3745164,125.067659 69.8777404,125.807523 69.2463146,126.435012 C68.6148889,127.062501 67.8720462,127.558866 67.0177643,127.92412 C66.1634825,128.289375 65.2442147,128.472 64.2599334,128.472 C63.2756521,128.472 62.3563843,128.289375 61.5021024,127.92412 C60.6478205,127.558866 59.9049779,127.062501 59.2735521,126.435012 C58.6421264,125.807523 58.1453504,125.067659 57.7832091,124.215398 C57.4210679,123.363136 57.24,122.450013 57.24,121.476 Z M74.427694,114.817157 L76.9348131,114.817157 L76.9348131,116.868193 L76.9905268,116.868193 C77.3062397,116.156414 77.8540862,115.580444 78.6340827,115.140265 C79.4140792,114.700086 80.3147759,114.48 81.3361999,114.48 C81.9676256,114.48 82.575828,114.578336 83.1608254,114.775012 C83.7458228,114.971688 84.2565271,115.276062 84.6929537,115.688145 C85.1293803,116.100227 85.4775878,116.62937 85.7375867,117.27559 C85.9975855,117.92181 86.127583,118.685088 86.127583,119.565446 L86.127583,128.134843 L83.6204639,128.134843 L83.6204639,120.267855 C83.6204639,119.649732 83.5368941,119.120589 83.369752,118.68041 C83.2026099,118.240231 82.9797571,117.884347 82.7011869,117.612747 C82.4226167,117.341147 82.1022658,117.144475 81.7401246,117.022723 C81.3779834,116.900971 81.0019193,116.840096 80.611921,116.840096 C80.0919234,116.840096 79.6090756,116.924385 79.1633634,117.092964 C78.7176511,117.261543 78.3276587,117.528456 77.9933745,117.893711 C77.6590902,118.258966 77.3990953,118.722551 77.2133819,119.284482 C77.0276684,119.846412 76.9348131,120.511354 76.9348131,121.279325 L76.9348131,128.134843 L74.427694,128.134843 L74.427694,114.817157 Z M91.8103862,122.403181 C91.8103862,122.983842 91.9357409,123.512986 92.186454,123.990627 C92.4371672,124.468267 92.7668036,124.875661 93.1753732,125.212819 C93.5839428,125.549978 94.057505,125.812208 94.596074,125.999518 C95.134643,126.186828 95.691775,126.280482 96.2674867,126.280482 C97.0474832,126.280482 97.7253272,126.097857 98.3010389,125.732602 C98.8767506,125.367348 99.406026,124.885031 99.8888809,124.285639 L101.783149,125.746651 C100.390298,127.563559 98.4403358,128.472 95.9332042,128.472 C94.8932089,128.472 93.9507272,128.294058 93.105731,127.938169 C92.2607348,127.582279 91.5457488,127.090598 90.9607514,126.463108 C90.375754,125.835619 89.9254057,125.095755 89.6096928,124.243494 C89.2939799,123.391233 89.1361258,122.468744 89.1361258,121.476 C89.1361258,120.483256 89.3079082,119.560767 89.6514781,118.708506 C89.995048,117.856245 90.4686102,117.116381 91.0721789,116.488892 C91.6757476,115.861402 92.3953765,115.369721 93.231087,115.013831 C94.0667975,114.657942 94.9767798,114.48 95.9610611,114.48 C97.1310558,114.48 98.1199651,114.686038 98.9278186,115.09812 C99.7356721,115.510203 100.399588,116.048712 100.919585,116.713663 C101.439583,117.378614 101.815647,118.127843 102.047789,118.961373 C102.279931,119.794904 102.396,120.64247 102.396,121.504096 L102.396,122.403181 L91.8103862,122.403181 Z M99.7217397,120.380241 C99.7031683,119.81831 99.6149558,119.303215 99.4570993,118.83494 C99.2992429,118.366664 99.0624618,117.959271 98.7467489,117.612747 C98.4310361,117.266223 98.0364009,116.994627 97.5628316,116.797952 C97.0892623,116.601276 96.5367731,116.50294 95.9053473,116.50294 C95.2924929,116.50294 94.7307182,116.620007 94.2200062,116.854145 C93.7092942,117.088282 93.2775169,117.392657 92.9246613,117.767277 C92.5718058,118.141897 92.2978825,118.558656 92.1028834,119.017566 C91.9078843,119.476476 91.8103862,119.930697 91.8103862,120.380241 L99.7217397,120.380241 Z" id="one" fill="#FFFFFF"></path>
        </g>
    </g>
</svg>