<?xml version="1.0" encoding="UTF-8"?>
<svg width="50px" height="50px" viewBox="0 0 50 50" version="1.1" xmlns="http://www.w3.org/2000/svg" xmlns:xlink="http://www.w3.org/1999/xlink">
    <!-- Generator: Sketch 51.2 (57519) - http://www.bohemiancoding.com/sketch -->
    <title>Scan Button</title>
    <desc>Created with Sketch.</desc>
    <defs></defs>
    <g id="Alice-One-Website" stroke="none" stroke-width="1" fill="none" fill-rule="evenodd">
        <g id="Scan-Button" fill="#212121" fill-rule="nonzero">
            <path d="M25,49.5614035 C11.4351114,49.5614035 0.438596491,38.5648886 0.438596491,25 C0.438596491,11.4351114 11.4351114,0.438596491 25,0.438596491 C38.5648886,0.438596491 49.5614035,11.4351114 49.5614035,25 C49.5614035,38.5648886 38.5648886,49.5614035 25,49.5614035 Z M25,45.1754386 C36.1425871,45.1754386 45.1754386,36.1425871 45.1754386,25 C45.1754386,13.8574129 36.1425871,4.8245614 25,4.8245614 C13.8574129,4.8245614 4.8245614,13.8574129 4.8245614,25 C4.8245614,36.1425871 13.8574129,45.1754386 25,45.1754386 Z" id="Oval-9"></path>
            <path d="M25,18.7343235 C28.4603697,18.7343235 31.2656642,21.5395574 31.2656642,24.9999922 C31.2656642,28.4603643 28.4603697,31.2656608 25,31.2656608 C21.5395677,31.2656608 18.7343358,28.4603643 18.7343358,24.9999922 C18.7343358,21.5395574 21.5395677,18.7343235 25,18.7343235 Z M25,14.0350877 C18.9442356,14.0350877 14.0350877,18.9442548 14.0350877,24.9999922 C14.0350877,31.0557609 18.9442356,35.9649123 25,35.9649123 C31.0557644,35.9649123 35.9649123,31.0557609 35.9649123,24.9999922 C35.9649123,18.9442548 31.0557644,14.0350877 25,14.0350877 Z" id="Shape"></path>
        </g>
    </g>
</svg>