<?xml version="1.0" encoding="UTF-8"?>
<svg width="121px" height="39px" viewBox="0 0 121 39" version="1.1" xmlns="http://www.w3.org/2000/svg" xmlns:xlink="http://www.w3.org/1999/xlink">
    <!-- Generator: Sketch 51.2 (57519) - http://www.bohemiancoding.com/sketch -->
    <title>Bottom Buttons</title>
    <desc>Created with Sketch.</desc>
    <defs></defs>
    <g id="Alice-One-Website" stroke="none" stroke-width="1" fill="none" fill-rule="evenodd">
        <g id="Bottom-Buttons">
            <path d="M114,0 L83,0 C81.8954305,2.02906125e-16 81,0.8954305 81,2 L81,2 C81,3.1045695 81.8954305,4 83,4 L114,4 C115.104569,4 116,3.1045695 116,2 L116,2 C116,0.8954305 115.104569,2.41183085e-16 114,4.4408921e-16 Z" id="Handle" fill="#AEAEAE" fill-rule="nonzero"></path>
            <g id="Group" transform="translate(0.000000, 16.000000)">
                <path d="M85.6400524,8.72012181 L88.1740838,6.16456625 L88.1740838,16.8354337 L85.6400524,14.2798782 L85.6400524,14.6944444 C85.6400524,15.4586335 85.0206141,16.0833333 84.2565445,16.0833333 L76.6544503,16.0833333 C75.8903807,16.0833333 75.2709424,15.4586335 75.2709424,14.6944444 L75.2709424,8.30555556 C75.2709424,7.54136649 75.8903807,6.91666667 76.6544503,6.91666667 L84.2565445,6.91666667 C85.0206141,6.91666667 85.6400524,7.54136649 85.6400524,8.30555556 L85.6400524,8.72012181 Z M82.2395288,10.9895833 L80.9679319,10.9895833 L80.9679319,9.69444444 L81.3265707,9.69444444 L80.9679319,9.3358057 L80.9679319,8.94444444 L80.7722513,9.14012507 L80.5765707,8.94444444 L80.5765707,9.3358057 L80.2179319,9.69444444 L80.5765707,9.69444444 L80.5765707,10.9895833 L79.3049738,10.9895833 L79.3049738,10.6215278 L78.9369183,10.9895833 L78.5549738,10.9895833 L78.745946,11.1805556 L78.5549738,11.3715278 L78.9369183,11.3715278 L79.3049738,11.7395833 L79.3049738,11.3715278 L80.5765707,11.3715278 L80.5765707,12.6666667 L80.2179319,12.6666667 L80.5765707,13.0253054 L80.5765707,13.4166667 L80.7722513,13.220986 L80.9679319,13.4166667 L80.9679319,13.0253054 L81.3265707,12.6666667 L80.9679319,12.6666667 L80.9679319,10.9895833 L80.5765707,10.9895833 L80.5765707,11.3715278 L82.2395288,11.3715278 L82.2395288,11.7395833 L82.6075844,11.3715278 L82.9895288,11.3715278 L82.7985566,11.1805556 L82.9895288,10.9895833 L82.6075844,10.9895833 L82.2395288,10.6215278 L82.2395288,10.9895833 Z" id="Add-Video-Grey" stroke="#858E98" stroke-width="1.5" fill-rule="nonzero"></path>
                <polygon id="T-Grey" fill="#858E98" points="121 6.38888889 121 7.75673559 116.126153 7.75673559 116.126153 17.25 114.430765 17.25 114.430765 7.75673559 109.596859 7.75673559 109.596859 6.38888889"></polygon>
                <g id="White-&amp;-Blue-3D">
                    <ellipse id="Blue-Background" fill="#2E85FF" cx="11.4031414" cy="11.5" rx="11.4031414" ry="11.5"></ellipse>
                    <path d="M11.4031414,4.47222222 L17.7382199,8.14583333 L17.7382199,15.4930556 L11.4031414,19.1666667 L5.06806283,15.4930556 L5.06806283,8.14583333 L11.4031414,4.47222222 Z M6.33507853,14.7602789 L10.7696335,17.25 L10.7696335,12.7117898 L6.33507853,10.2222222 L6.33507853,14.7602789 Z M16.4712042,14.7602789 L16.4712042,10.2222222 L12.0366492,12.7117898 L12.0366492,17.25 L16.4712042,14.7602789 Z M6.33507853,8.625 L11.4031414,11.5 L16.4712042,8.625 L11.4048047,5.75 L6.33507853,8.625 Z" id="Add-3-D-White" fill="#FFFFFF"></path>
                </g>
                <path d="M51.486911,5.11111111 L42.2722513,5.11111111 C41.3181021,5.11111111 40.5445026,5.89128157 40.5445026,6.85353535 L40.5445026,16.1464646 C40.5445026,17.1087184 41.3181021,17.8888889 42.2722513,17.8888889 L51.486911,17.8888889 C52.4410602,17.8888889 53.2146597,17.1087184 53.2146597,16.1464646 L53.2146597,6.85353535 C53.2146597,5.89128157 52.4410602,5.11111111 51.486911,5.11111111 Z M52.0628272,16.1464646 C52.0628272,16.4673611 51.8051047,16.7272727 51.486911,16.7272727 L44.2385733,16.7272727 L49.1832461,11.7405997 L52.0628272,14.6444949 L52.0628272,16.1464646 Z M52.0628272,13.0019697 L49.1832461,10.0979293 L42.6095942,16.7272727 L42.2722513,16.7272727 C41.9540576,16.7272727 41.6963351,16.4673611 41.6963351,16.1464646 L41.6963351,6.85353535 C41.6963351,6.53263889 41.9540576,6.27272727 42.2722513,6.27272727 L51.486911,6.27272727 C51.8051047,6.27272727 52.0628272,6.53263889 52.0628272,6.85353535 L52.0628272,13.0019697 Z M44.5759162,7.43434343 C43.621767,7.43434343 42.8481675,8.21451389 42.8481675,9.17676768 C42.8481675,10.1390215 43.621767,10.9191919 44.5759162,10.9191919 C45.5300654,10.9191919 46.3036649,10.1390215 46.3036649,9.17676768 C46.3036649,8.21451389 45.5300654,7.43434343 44.5759162,7.43434343 Z M44.5759162,9.75757576 C44.2578665,9.75757576 44,9.49751894 44,9.17676768 C44,8.85601641 44.2578665,8.5959596 44.5759162,8.5959596 C44.893966,8.5959596 45.1518325,8.85601641 45.1518325,9.17676768 C45.1518325,9.49751894 44.893966,9.75757576 44.5759162,9.75757576 Z" id="Add-Image-Grey" fill="#858E98" fill-rule="nonzero"></path>
            </g>
        </g>
    </g>
</svg>