<?xml version="1.0" encoding="UTF-8"?>
<svg width="26px" height="26px" viewBox="0 0 26 26" version="1.1" xmlns="http://www.w3.org/2000/svg" xmlns:xlink="http://www.w3.org/1999/xlink">
    <!-- Generator: Sketch 51.2 (57519) - http://www.bohemiancoding.com/sketch -->
    <title>Help Button (White)</title>
    <desc>Created with Sketch.</desc>
    <defs></defs>
    <g id="Alice-One-Website" stroke="none" stroke-width="1" fill="none" fill-rule="evenodd">
        <g id="Help-Button-(White)" transform="translate(1.000000, 1.000000)">
            <g>
                <circle id="Oval" stroke="#212121" stroke-width="2" cx="12" cy="12" r="12"></circle>
                <path d="M9.39705882,8.33043478 L9.39705882,6.64347826 C10.1471828,6.21449061 11.0530881,6 12.1148021,6 C13.2111371,6 14.091077,6.28115661 14.7546482,6.84347826 C15.4182194,7.40579991 15.75,8.18550226 15.75,9.1826087 C15.75,10.1681209 15.4153343,10.9333306 14.7459929,11.4782609 C14.0766516,12.0231911 13.332309,12.3246374 12.5129428,12.3826087 L12.4956323,14.1391304 L10.8857589,14.1391304 L10.8684485,11.3391304 C12.9572552,11.3391304 14.0016429,10.6608763 14.0016429,9.30434783 C14.0016429,8.75941757 13.82854,8.32174078 13.4823289,7.99130435 C13.1361178,7.66086791 12.6283492,7.49565217 11.9590079,7.49565217 C11.1050206,7.49565217 10.2510461,7.77391026 9.39705882,8.33043478 Z M10.8165171,17.6695652 C10.5972501,17.43768 10.4876182,17.1536249 10.4876182,16.8173913 C10.4876182,16.4811577 10.6030202,16.1971026 10.8338275,15.9652174 C11.0646349,15.7333322 11.3415996,15.6173913 11.6647299,15.6173913 C11.9994006,15.6173913 12.2821354,15.7333322 12.5129428,15.9652174 C12.7437502,16.1971026 12.8591521,16.4811577 12.8591521,16.8173913 C12.8591521,17.1536249 12.7437502,17.4347815 12.5129428,17.6608696 C12.2821354,17.8869577 11.9994006,18 11.6647299,18 C11.3300592,18 11.0473244,17.8898562 10.8165171,17.6695652 Z" id="?" fill="#212121"></path>
            </g>
        </g>
    </g>
</svg>